# xmcd CD database file
#
# Track frame offsets:
#	150
#	19653
#	37428
#	54005
#	72349
#	83993
#	98264
#	130045
#	141436
#	166875
#	187217
#	200916
#	227361
#	245987
#	260856
#
# Disc length: 3816 seconds
#
# Revision: 1
# Processed by: cddbd v1.5.2PL0 Copyright (c) Steve Scherf et al.
# Submitted via: Feurio! 1.67 - http://www.feurio.com
#
DISCID=dc0ee60f
DTITLE=Markus Rill - Markus Rill Live
DYEAR=2007
DGENRE=Blues
TTITLE0=Singin' In The Cemetery
TTITLE1=Cowboy Blue
TTITLE2=Hobo Dream
TTITLE3=Where Do We Go From Here?
TTITLE4=That's All Right, Mama
TTITLE5=Unlike You
TTITLE6=Sarah Stein
TTITLE7=Love Has Dragged Me Down
TTITLE8=Just So You Know
TTITLE9=Fade To Blue
TTITLE10=Run Run Run
TTITLE11=The Price You Pay For Sin
TTITLE12=Trouble With The Law
TTITLE13=Broken Puppet
TTITLE14=Out Of The Cold
EXTD=
EXTT0=
EXTT1=
EXTT2=
EXTT3=
EXTT4=
EXTT5=
EXTT6=
EXTT7=
EXTT8=
EXTT9=
EXTT10=
EXTT11=
EXTT12=
EXTT13=
EXTT14=
PLAYORDER=
